 <svg version="1.0" xmlns="http://www.w3.org/2000/svg"  width="50.000000pt" height="50.000000pt" viewBox="0 0 50.000000 50.000000"  preserveAspectRatio="xMidYMid meet">  <g transform="translate(0.000000,50.000000) scale(0.100000,-0.100000)" fill="#000000" stroke="none"> <path d="M178 487 c-209 -59 -238 -356 -44 -456 68 -35 164 -35 232 0 171 88 173 350 4 436 -57 29 -132 36 -192 20z m162 -28 c25 -11 56 -30 69 -42 36 -33 71 -115 71 -167 0 -49 -29 -122 -63 -159 -33 -36 -115 -71 -167 -71 -52 0 -134 35 -167 71 -61 66 -78 170 -42 249 27 60 54 88 114 116 62 29 125 30 185 3z"></path> <path d="M182 449 c-49 -15 -118 -89 -132 -141 -25 -90 11 -182 92 -235 35 -24 52 -28 108 -28 56 0 73 4 108 28 23 15 54 46 69 69 24 35 28 52 28 108 0 56 -4 73 -28 108 -53 81 -155 119 -245 91z m169 -42 c57 -38 79 -81 79 -154 0 -69 -14 -106 -52 -138 -42 -37 -67 -45 -131 -45 -73 0 -116 22 -154 79 -18 27 -23 48 -23 101 0 76 21 118 79 157 48 33 154 33 202 0z"></path> <path d="M190 245 c0 -113 2 -135 15 -135 12 0 15 14 15 70 l0 70 45 0 c25 0 45 5 45 10 0 6 -20 10 -45 10 l-45 0 0 45 0 45 65 0 c37 0 65 4 65 10 0 6 -33 10 -80 10 l-80 0 0 -135z"></path> </g> </svg> 