<svg version="1.0" xmlns="http://www.w3.org/2000/svg" width="66.667" height="66.667" viewBox="0 0 50 50"><path d="M17.8 1.3C-3.1 7.2-6 36.9 13.4 46.9c6.8 3.5 16.4 3.5 23.2 0 17.1-8.8 17.3-35 .4-43.6-5.7-2.9-13.2-3.6-19.2-2zM34 4.1c2.5 1.1 5.6 3 6.9 4.2C44.5 11.6 48 19.8 48 25c0 4.9-2.9 12.2-6.3 15.9C38.4 44.5 30.2 48 25 48c-5.2 0-13.4-3.5-16.7-7.1C2.2 34.3.5 23.9 4.1 16c2.7-6 5.4-8.8 11.4-11.6 6.2-2.9 12.5-3 18.5-.3z"/><path d="M18.2 5.1C13.3 6.6 6.4 14 5 19.2c-2.5 9 1.1 18.2 9.2 23.5 3.5 2.4 5.2 2.8 10.8 2.8 5.6 0 7.3-.4 10.8-2.8 2.3-1.5 5.4-4.6 6.9-6.9 2.4-3.5 2.8-5.2 2.8-10.8 0-5.6-.4-7.3-2.8-10.8-5.3-8.1-15.5-11.9-24.5-9.1zm16.9 4.2c5.7 3.8 7.9 8.1 7.9 15.4 0 6.9-1.4 10.6-5.2 13.8-4.2 3.7-6.7 4.5-13.1 4.5-7.3 0-11.6-2.2-15.4-7.9C7.5 32.4 7 30.3 7 25c0-7.6 2.1-11.8 7.9-15.7C19.7 6 30.3 6 35.1 9.3z"/><path d="M19 25.5c0 11.3.2 13.5 1.5 13.5 1.2 0 1.5-1.4 1.5-7v-7h4.5c2.5 0 4.5-.5 4.5-1 0-.6-2-1-4.5-1H22v-9h6.5c3.7 0 6.5-.4 6.5-1s-3.3-1-8-1h-8v13.5z"/></svg>