 <svg version="1.0" xmlns="http://www.w3.org/2000/svg"  width="50.000000pt" height="50.000000pt" viewBox="0 0 50.000000 50.000000"  preserveAspectRatio="xMidYMid meet">  <g transform="translate(0.000000,50.000000) scale(0.100000,-0.100000)" fill="#000000" stroke="none"> <path d="M178 487 c-209 -59 -238 -356 -44 -456 68 -35 164 -35 232 0 171 88 173 350 4 436 -57 29 -132 36 -192 20z m162 -28 c25 -11 56 -30 69 -42 36 -33 71 -115 71 -167 0 -49 -29 -122 -63 -159 -33 -36 -115 -71 -167 -71 -52 0 -134 35 -167 71 -61 66 -78 170 -42 249 27 60 54 88 114 116 62 29 125 30 185 3z"></path> <path d="M190 448 c-148 -42 -195 -233 -85 -343 148 -149 394 -9 345 197 -17 68 -77 130 -142 146 -54 14 -70 14 -118 0z m141 -32 c39 -16 70 -48 87 -89 16 -38 15 -120 -2 -162 -33 -79 -168 -120 -253 -77 -63 33 -93 80 -93 147 0 72 17 111 69 158 38 34 46 37 100 37 32 0 74 -6 92 -14z"></path> <path d="M207 392 c-22 -24 -21 -45 1 -65 24 -22 55 -21 75 1 22 24 21 45 -1 65 -24 22 -55 21 -75 -1z m63 -29 c0 -23 -4 -28 -25 -28 -15 0 -27 7 -31 17 -8 25 3 38 32 38 20 0 24 -5 24 -27z"></path> <path d="M230 195 c0 -69 3 -85 15 -85 12 0 15 16 15 85 0 69 -3 85 -15 85 -12 0 -15 -16 -15 -85z"></path> </g> </svg> 