 <svg version="1.0" xmlns="http://www.w3.org/2000/svg"  width="50.000000pt" height="50.000000pt" viewBox="0 0 50.000000 50.000000"  preserveAspectRatio="xMidYMid meet">  <g transform="translate(0.000000,50.000000) scale(0.100000,-0.100000)" fill="#000000" stroke="none"> <path d="M178 487 c-209 -59 -238 -356 -44 -456 68 -35 164 -35 232 0 171 88 173 350 4 436 -57 29 -132 36 -192 20z m162 -28 c25 -11 56 -30 69 -42 36 -33 71 -115 71 -167 0 -49 -29 -122 -63 -159 -33 -36 -115 -71 -167 -71 -52 0 -134 35 -167 71 -61 66 -78 170 -42 249 27 60 54 88 114 116 62 29 125 30 185 3z"></path> <path d="M175 445 c-74 -26 -135 -114 -135 -195 0 -110 100 -210 210 -210 53 0 106 23 146 64 85 84 85 208 0 292 -61 61 -138 78 -221 49z m143 -20 c160 -67 160 -283 0 -350 -92 -38 -195 5 -239 100 -44 94 -2 201 96 246 49 23 94 24 143 4z"></path> </g> </svg> 